<svg width="2791" height="624" viewBox="0 0 2791 624" fill="none" xmlns="http://www.w3.org/2000/svg">
<g clip-path="url(#clip0_1250_294)">
<path d="M489.003 159.438C503.006 141.667 520.516 126.966 540.442 116.249C561.237 105.377 584.434 99.9119 607.895 100.356C627.714 99.7993 647.382 103.957 665.279 112.488C680.933 120.403 694.519 131.87 704.95 145.972C715.88 160.922 723.792 177.858 728.244 195.834C733.275 215.658 735.762 236.042 735.644 256.494C735.773 286.354 731.146 316.045 721.935 344.45C713.569 370.721 700.722 395.348 683.962 417.241C668.507 437.541 648.956 454.364 626.578 466.618C603.945 478.748 578.615 484.965 552.938 484.695C529.299 485.323 505.849 480.334 484.514 470.136C464.078 458.87 447.253 442.044 435.986 421.609L395.83 607.47H316.608L421.792 110.911H498.951L489.003 159.438ZM454.912 335.594C453.798 357.746 461.273 379.474 475.779 396.253C483.952 404.357 493.772 410.608 504.573 414.585C515.373 418.562 526.903 420.172 538.379 419.304C555.531 419.576 572.391 414.855 586.907 405.716C601.566 396.406 613.993 383.979 623.303 369.32C633.129 353.125 640.451 335.537 645.019 317.153C650.103 297.004 652.67 276.303 652.662 255.523C654.269 231.669 647.346 208.02 633.13 188.798C627.067 181.288 619.368 175.264 610.621 171.185C601.874 167.106 592.311 165.08 582.661 165.262C568.603 165.13 554.661 167.811 541.655 173.147C528.776 178.617 516.951 186.294 506.715 195.834C496.161 205.505 487.231 216.811 480.268 229.318C473.016 242.207 467.741 256.111 464.617 270.567C459.54 291.927 456.293 313.682 454.912 335.594Z" fill="#072653"/>
<path d="M863.154 481.671C835.32 483.107 807.973 473.962 786.601 456.072C776.842 446.747 769.243 435.398 764.339 422.823C759.435 410.248 757.344 396.751 758.213 383.281C757.326 360.835 763.11 338.629 774.833 319.467C786.109 302.701 801.475 289.088 819.479 279.917C839.506 269.615 861.048 262.571 883.293 259.05C908.231 254.62 933.443 251.905 958.753 250.922L1024.75 248.01L1026.81 236.97C1028.16 229.156 1028.85 221.242 1028.88 213.313C1029.34 206.161 1028.28 198.993 1025.77 192.281C1023.26 185.568 1019.36 179.463 1014.32 174.369C1000.52 163.7 983.141 158.748 965.79 160.539C946.259 159.421 926.736 162.869 908.77 170.608C894.15 179.372 883.431 193.39 878.804 209.795L807.226 202.151C815.675 169.143 836.707 140.751 865.823 123.051C899.383 106.122 936.73 98.1012 974.282 99.7582C1016.5 99.7582 1048.65 109.342 1071.34 128.632C1082.6 138.797 1091.48 151.317 1097.35 165.303C1103.22 179.289 1105.94 194.397 1105.31 209.552C1105.29 216.327 1104.84 223.094 1103.97 229.812C1103 236.727 1101.79 243.885 1100.45 251.286L1053.14 472.572H977.921L987.627 425.257C971.884 441.236 954.001 454.954 934.489 466.02C912.409 477.163 887.871 482.547 863.154 481.671ZM1012.74 300.784L958.753 303.453C939.14 304.408 919.63 306.882 900.399 310.853C887.121 313.323 874.388 318.129 862.79 325.048C854.228 330.319 847.364 337.941 843.015 347.006C839.06 356.319 837.157 366.373 837.434 376.487C837.293 382.192 838.294 387.867 840.377 393.18C842.46 398.492 845.585 403.335 849.566 407.423C854.796 411.977 860.877 415.448 867.458 417.635C874.038 419.821 880.988 420.68 887.903 420.162C902.011 420.565 916.084 418.555 929.515 414.217C942.044 409.987 953.864 403.893 964.576 396.141C974.999 388.555 983.96 379.142 991.024 368.359C998.285 357.295 1003.35 344.939 1005.95 331.963L1012.74 300.784Z" fill="#072653"/>
<path d="M1151.28 110.927H1238.88L1284.73 371.641L1429.47 110.927H1519.85L1286.31 494.901C1275.23 513.342 1264.92 529.518 1255.38 543.429C1247.02 556.491 1237.03 568.436 1225.65 578.976C1215.55 588.084 1203.88 595.278 1191.2 600.206C1176.89 605.347 1161.75 607.815 1146.55 607.486C1135.83 607.584 1125.14 606.526 1114.65 604.331C1105.22 602.392 1095.96 599.673 1086.98 596.203L1107.73 535.543C1112.83 537.363 1118.65 539.062 1125.2 540.76C1132.04 542.358 1139.04 543.172 1146.07 543.186C1158.32 543.731 1170.33 539.613 1179.67 531.661C1191.16 520.276 1200.93 507.28 1208.67 493.082L1229.53 457.657L1151.28 110.927Z" fill="#072653"/>
<path d="M213.974 357.195C213.004 361.805 212.154 365.808 211.548 369.327C210.819 372.879 210.453 376.497 210.456 380.124C209.859 385.219 210.459 390.382 212.207 395.205C213.955 400.028 216.803 404.376 220.525 407.906C228.567 413.418 238.21 416.107 247.943 415.549C262.705 415.645 277.393 413.477 291.497 409.119L303.629 468.323C280.104 475.838 255.533 479.565 230.837 479.363C204.507 481.116 178.41 473.463 157.197 457.768C148.23 449.571 141.268 439.421 136.85 428.103C132.433 416.785 130.677 404.603 131.72 392.498C131.627 379.561 133.259 366.668 136.573 354.162L174.788 173.396H0.331299L13.919 110.917H186.799L207.665 13.8618H286.887L266.02 110.917H363.075L349.73 173.639H252.675L213.974 357.195Z" fill="#072653"/>
<path d="M1720.15 141.01H1700.13V123.782H1720.15V88.7212H1741.74V123.782H1775.83V141.01H1741.74V216.47C1741.51 221.849 1742.99 227.162 1745.99 231.635C1747.53 233.571 1749.51 235.103 1751.77 236.096C1754.04 237.09 1756.51 237.516 1758.97 237.337C1762.18 237.369 1765.39 237.126 1768.56 236.609C1771.1 236.121 1773.61 235.472 1776.08 234.668L1779.84 251.289C1776.31 252.504 1772.7 253.477 1769.04 254.2C1764.47 254.985 1759.84 255.35 1755.21 255.292C1749.14 255.531 1743.08 254.412 1737.5 252.017C1733.17 249.972 1729.48 246.784 1726.82 242.796C1724.02 238.513 1722.2 233.667 1721.48 228.602C1720.52 222.667 1720.07 216.659 1720.15 210.647V141.01Z" fill="#30D266"/>
<path d="M1795.85 123.782H1817.21V143.679C1821.53 136.985 1827.34 131.381 1834.19 127.3C1840.4 123.523 1847.54 121.549 1854.81 121.598C1858.68 121.501 1862.54 121.826 1866.34 122.569L1863.55 142.708L1858.58 141.859C1856.76 141.73 1854.93 141.73 1853.12 141.859C1848.99 141.915 1844.9 142.611 1840.98 143.921C1836.47 145.406 1832.33 147.848 1828.85 151.079C1825.29 154.114 1822.36 157.825 1820.24 161.998C1818.08 166.498 1817 171.442 1817.08 176.435V252.866H1795.85V123.782Z" fill="#30D266"/>
<path d="M1883.93 123.782H1905.65V204.944C1904.85 213.838 1906.89 222.755 1911.47 230.421C1913.85 233.051 1916.81 235.089 1920.12 236.374C1923.42 237.658 1926.98 238.154 1930.52 237.822C1940.25 237.74 1949.6 234.018 1956.72 227.388C1960.58 223.945 1963.78 219.835 1966.18 215.256C1968.45 210.275 1969.53 204.834 1969.34 199.364V123.782H1991.05V252.501H1969.58V232.241C1964.2 239.728 1957.25 245.941 1949.2 250.439C1941.89 254.227 1933.77 256.184 1925.54 256.141C1919.67 256.638 1913.77 255.805 1908.26 253.704C1902.76 251.604 1897.8 248.29 1893.76 244.009C1886.47 233.654 1882.99 221.091 1883.93 208.462V123.782Z" fill="#30D266"/>
<path d="M2035.58 214.886C2035.94 218.678 2037.15 222.34 2039.13 225.596C2041.1 228.853 2043.79 231.62 2046.98 233.691C2054.47 237.545 2062.83 239.385 2071.25 239.029C2079.41 239.784 2087.6 237.822 2094.54 233.448C2096.74 231.678 2098.51 229.419 2099.69 226.85C2100.87 224.281 2101.43 221.473 2101.33 218.647C2101.37 216.274 2101.08 213.908 2100.49 211.611C2099.89 209.331 2098.72 207.241 2097.09 205.545C2095.1 203.584 2092.75 202.02 2090.17 200.935C2086.27 199.401 2082.2 198.342 2078.04 197.78L2062.76 195.839C2056.25 194.895 2049.84 193.393 2043.59 191.351C2038.58 189.801 2033.86 187.422 2029.64 184.314C2025.89 181.505 2022.93 177.789 2021.02 173.517C2018.96 168.691 2017.97 163.476 2018.11 158.23C2018.02 152.688 2019.36 147.216 2021.99 142.338C2024.63 137.532 2028.32 133.385 2032.79 130.206C2037.7 126.833 2043.16 124.33 2048.92 122.805C2055.52 120.954 2062.34 120.056 2069.19 120.136C2077.04 119.968 2084.88 120.908 2092.48 122.927C2098.02 124.348 2103.21 126.865 2107.76 130.327C2111.68 133.317 2114.83 137.181 2116.98 141.61C2119.22 145.951 2120.89 150.557 2121.96 155.319L2102.31 158.473C2101.31 155.262 2099.97 152.17 2098.3 149.253C2096.89 146.61 2094.85 144.359 2092.36 142.702C2089.58 140.847 2086.5 139.492 2083.26 138.698C2073.94 136.759 2064.31 136.759 2054.99 138.698C2051.55 139.538 2048.3 141.02 2045.41 143.066C2043.22 144.617 2041.46 146.706 2040.31 149.132C2039.34 151.393 2038.85 153.829 2038.86 156.289C2038.83 158.67 2039.16 161.041 2039.83 163.326C2040.53 165.504 2041.83 167.438 2043.59 168.907C2045.78 170.698 2048.29 172.057 2050.99 172.91C2054.93 174.299 2058.99 175.314 2063.12 175.943L2081.8 178.976C2093.64 180.088 2104.92 184.548 2114.32 191.836C2117.75 195.388 2120.39 199.621 2122.09 204.26C2123.78 208.899 2124.48 213.842 2124.14 218.769C2124.21 223.967 2123.09 229.112 2120.87 233.812C2118.65 238.576 2115.32 242.737 2111.16 245.944C2106.34 249.612 2100.86 252.329 2095.03 253.951C2087.62 255.899 2079.99 256.838 2072.34 256.742C2065 256.785 2057.68 256.053 2050.5 254.558C2044.23 253.194 2038.24 250.773 2032.79 247.4C2027.77 244.149 2023.61 239.738 2020.66 234.54C2017.31 228.602 2015.43 221.944 2015.2 215.129L2035.58 214.886Z" fill="#30D266"/>
<path d="M2156.41 141.01H2136.4V123.782H2156.41V88.7212H2178.01V123.782H2212.1V141.01H2178.01V216.47C2177.77 221.849 2179.26 227.162 2182.25 231.635C2183.79 233.571 2185.77 235.103 2188.04 236.096C2190.3 237.09 2192.77 237.516 2195.24 237.337C2198.45 237.369 2201.65 237.126 2204.82 236.609C2207.37 236.121 2209.88 235.472 2212.34 234.668L2216.1 251.289C2212.57 252.504 2208.97 253.477 2205.3 254.2C2200.74 254.985 2196.11 255.35 2191.47 255.292C2185.4 255.531 2179.35 254.412 2173.76 252.017C2169.43 249.972 2165.74 246.784 2163.09 242.796C2160.29 238.513 2158.47 233.667 2157.75 228.602C2156.78 222.667 2156.33 216.659 2156.41 210.647V141.01Z" fill="#30D266"/>
<path d="M2340.09 216.464C2338.49 227.981 2332.6 238.468 2323.59 245.824C2312.45 253.654 2298.96 257.423 2285.38 256.5C2277 257.038 2268.62 255.718 2260.81 252.635C2253.01 249.552 2245.99 244.782 2240.24 238.666C2229.09 224.619 2223.52 206.949 2224.59 189.046C2224.4 178.996 2225.92 168.987 2229.08 159.445C2231.56 151.434 2235.69 144.035 2241.22 137.728C2246.59 131.92 2253.17 127.364 2260.51 124.383C2268.21 121.278 2276.46 119.712 2284.77 119.773C2293.54 119.554 2302.26 121.165 2310.37 124.505C2317.19 127.418 2323.21 131.909 2327.96 137.607C2332.7 143.416 2336.17 150.152 2338.15 157.382C2340.59 165.529 2341.81 173.991 2341.79 182.495V193.535H2246.19C2246.14 199.653 2247 205.745 2248.74 211.612C2250.35 216.838 2252.9 221.729 2256.26 226.049C2259.52 230.121 2263.67 233.398 2268.39 235.633C2273.65 238.002 2279.37 239.163 2285.13 239.03C2293.68 239.938 2302.28 237.789 2309.4 232.964C2314.49 228.716 2318.07 222.924 2319.59 216.464H2340.09ZM2320.44 177.278C2320.52 171.677 2319.86 166.09 2318.5 160.658C2317.32 155.977 2315.17 151.595 2312.19 147.798C2309.27 144.179 2305.52 141.309 2301.27 139.427C2296.15 137.364 2290.65 136.373 2285.13 136.515C2280.18 136.236 2275.22 137.022 2270.59 138.822C2265.97 140.622 2261.78 143.393 2258.32 146.949C2251.26 155.504 2247.29 166.188 2247.04 177.278H2320.44Z" fill="#30D266"/>
<path d="M2461.65 234.056C2456.77 240.859 2450.48 246.529 2443.21 250.676C2435.75 254.652 2427.4 256.657 2418.95 256.5C2410.56 256.696 2402.25 254.908 2394.68 251.283C2387.95 247.904 2382.09 243.003 2377.58 236.967C2372.9 230.477 2369.52 223.144 2367.63 215.372C2365.39 206.695 2364.29 197.764 2364.35 188.804C2364.22 179.072 2365.57 169.376 2368.36 160.051C2370.67 152.085 2374.54 144.66 2379.76 138.213C2384.55 132.31 2390.66 127.614 2397.6 124.504C2405.26 121.23 2413.53 119.618 2421.86 119.773C2428.98 119.804 2436.02 121.204 2442.6 123.898C2450.34 127.257 2457.04 132.617 2462.02 139.427V74.521H2483.61V252.496H2462.5L2461.65 234.056ZM2461.65 184.315C2462.04 176.086 2460.88 167.858 2458.25 160.051C2455.98 154.278 2452.16 149.242 2447.21 145.493C2443.96 142.721 2440.22 140.581 2436.17 139.184C2432.23 138.057 2428.15 137.485 2424.04 137.486C2418.98 137.462 2413.95 138.409 2409.24 140.276C2404.53 142.121 2400.35 145.125 2397.11 149.011C2393.42 153.664 2390.73 159.035 2389.22 164.782C2387.13 172.364 2386.14 180.211 2386.31 188.076C2386.11 196.278 2387.17 204.462 2389.47 212.339C2391.06 218.017 2393.87 223.277 2397.72 227.747C2400.8 231.377 2404.71 234.208 2409.12 235.997C2413.31 237.584 2417.75 238.406 2422.22 238.423C2426.57 238.521 2430.91 237.948 2435.08 236.725C2439.43 235.442 2443.54 233.432 2447.21 230.78C2452.19 226.798 2456.07 221.623 2458.5 215.736C2461.29 208.551 2462.61 200.877 2462.38 193.171L2461.65 184.315Z" fill="#30D266"/>
<path d="M1712.63 346.034H1734.1V364.475C1738.89 357.551 1745.25 351.856 1752.66 347.854C1760.14 343.913 1768.48 341.91 1776.93 342.031C1785.3 341.82 1793.61 343.564 1801.19 347.126C1807.94 350.268 1813.81 355.017 1818.3 360.957C1823.07 367.35 1826.57 374.598 1828.61 382.309C1830.88 391.228 1831.98 400.403 1831.89 409.606C1832 419.336 1830.65 429.029 1827.88 438.358C1825.6 446.298 1821.72 453.688 1816.48 460.074C1811.63 466.052 1805.44 470.793 1798.4 473.905C1791.25 476.944 1783.55 478.511 1775.78 478.511C1768 478.511 1760.3 476.944 1753.15 473.905C1745.48 470.606 1738.88 465.228 1734.1 458.376V523.403H1712.39L1712.63 346.034ZM1734.1 414.216C1733.91 421.395 1734.85 428.56 1736.89 435.446C1738.47 440.8 1741.15 445.761 1744.78 450.005C1748 453.828 1752.19 456.718 1756.91 458.376C1761.82 460.114 1766.99 460.977 1772.2 460.923C1777.25 460.977 1782.28 460.071 1787 458.254C1791.76 456.435 1795.95 453.377 1799.13 449.398C1802.8 444.732 1805.49 439.365 1807.01 433.627C1809.11 425.715 1810.05 417.543 1809.8 409.363C1810.07 401.166 1809.05 392.978 1806.77 385.099C1805.09 379.482 1802.33 374.247 1798.64 369.692C1795.63 366.077 1791.75 363.282 1787.36 361.563C1783.2 359.88 1778.75 359.015 1774.26 359.015C1768.9 358.951 1763.58 359.941 1758.61 361.927C1754 363.849 1749.86 366.746 1746.48 370.419C1742.7 374.495 1739.84 379.336 1738.11 384.614C1736.05 390.999 1735.06 397.681 1735.19 404.389L1734.1 414.216Z" fill="#30D266"/>
<path d="M1938.77 457.164C1933.76 463.011 1927.76 467.938 1921.05 471.722C1912.83 476.004 1903.63 478.093 1894.36 477.788C1888.38 477.871 1882.41 477.094 1876.65 475.483C1871.54 474.075 1866.78 471.593 1862.7 468.204C1858.76 464.925 1855.65 460.77 1853.6 456.072C1851.32 450.706 1850.2 444.917 1850.33 439.088C1850.03 431.536 1851.97 424.065 1855.91 417.614C1859.71 412.134 1864.85 407.709 1870.83 404.754C1877.49 401.464 1884.61 399.175 1891.94 397.96C1899.97 396.644 1908.07 395.834 1916.2 395.534L1938.4 394.806V389.953C1939.16 381.496 1936.64 373.071 1931.37 366.418C1928.28 363.724 1924.68 361.688 1920.77 360.437C1916.87 359.185 1912.76 358.743 1908.68 359.138C1900.82 358.535 1892.95 360.31 1886.11 364.234C1881.31 367.578 1877.94 372.598 1876.65 378.307L1856.51 376.002C1857.29 370.747 1859.19 365.722 1862.08 361.264C1864.97 356.806 1868.78 353.02 1873.25 350.161C1884.41 344.152 1897 341.339 1909.65 342.032C1917.63 341.882 1925.58 343.029 1933.19 345.429C1939.02 347.406 1944.33 350.683 1948.71 355.014C1952.81 359.365 1955.76 364.656 1957.33 370.421C1959.1 377.191 1959.96 384.169 1959.88 391.167V474.877H1939.01L1938.77 457.164ZM1938.77 410.335L1918.02 411.063C1910.68 411.249 1903.37 412.102 1896.18 413.611C1891.29 414.538 1886.6 416.346 1882.35 418.949C1879.16 420.917 1876.63 423.788 1875.07 427.198C1873.58 431.063 1872.88 435.189 1873.01 439.33C1872.88 442.178 1873.33 445.022 1874.33 447.691C1875.34 450.359 1876.87 452.798 1878.83 454.859C1884.25 459.258 1891.18 461.349 1898.12 460.682C1908.9 461.348 1919.54 457.974 1927.97 451.22C1931.57 447.978 1934.4 443.979 1936.27 439.511C1938.14 435.043 1938.99 430.216 1938.77 425.379V410.335Z" fill="#30D266"/>
<path d="M1986.81 502.171C1991.27 503.846 1995.99 504.709 2000.76 504.718C2002.95 504.868 2005.16 504.58 2007.24 503.872C2009.32 503.164 2011.24 502.05 2012.89 500.594C2016.79 496.151 2019.73 490.946 2021.5 485.307L2026.72 471.598L1972.25 346.033H1997.36L2038.49 447.213L2074.89 346.033H2099.15L2042.86 487.006C2040.79 492.225 2038.44 497.328 2035.82 502.292C2033.73 506.381 2031.16 510.209 2028.18 513.696C2025.37 516.798 2021.88 519.207 2017.99 520.733C2013.42 522.455 2008.55 523.279 2003.67 523.159C1996.47 523.362 1989.3 522.167 1982.56 519.641L1986.81 502.171Z" fill="#30D266"/>
<path d="M2114.8 346.031H2136.27V365.684C2141.28 358.436 2147.82 352.386 2155.44 347.972C2161.92 344.172 2169.28 342.123 2176.79 342.027C2185.02 341.684 2193.16 343.887 2200.09 348.336C2206.22 352.808 2210.8 359.086 2213.19 366.291C2218.21 358.878 2224.85 352.698 2232.6 348.214C2240.01 344.065 2248.38 341.931 2256.87 342.027C2262.19 341.704 2267.53 342.462 2272.55 344.255C2277.58 346.048 2282.19 348.839 2286.1 352.461C2289.93 357.046 2292.81 362.345 2294.58 368.05C2296.35 373.755 2296.98 379.755 2296.42 385.702V474.871H2274.82V390.676C2274.95 385.775 2274.42 380.878 2273.24 376.118C2272.52 372.77 2271.07 369.621 2269 366.897C2267.13 364.654 2264.64 363.008 2261.84 362.166C2258.71 361.146 2255.43 360.654 2252.13 360.71C2248.01 360.762 2243.91 361.458 2240 362.773C2235.56 364.297 2231.45 366.643 2227.87 369.688C2224.57 372.602 2221.78 376.046 2219.62 379.879C2217.39 384.098 2216.26 388.815 2216.34 393.588V474.871H2194.99V390.919C2195.8 382.638 2193.74 374.332 2189.17 367.383C2187.01 365.121 2184.38 363.354 2181.47 362.202C2178.56 361.05 2175.43 360.541 2172.31 360.71C2167.77 360.784 2163.28 361.754 2159.12 363.566C2154.96 365.377 2151.19 367.993 2148.04 371.265C2144.92 374.311 2142.19 377.735 2139.91 381.456C2137.16 386.546 2135.86 392.296 2136.15 398.076V474.871H2114.44L2114.8 346.031Z" fill="#30D266"/>
<path d="M2437.75 438.479C2436.1 449.977 2430.21 460.444 2421.25 467.838C2410.1 475.633 2396.62 479.398 2383.04 478.514C2374.68 479.051 2366.3 477.743 2358.5 474.682C2350.7 471.621 2343.67 466.882 2337.91 460.802C2326.73 446.723 2321.15 429.005 2322.26 411.061C2322.07 401.011 2323.59 391.001 2326.75 381.459C2329.25 373.46 2333.38 366.066 2338.88 359.743C2344.3 353.987 2350.87 349.439 2358.17 346.398C2365.89 343.32 2374.12 341.754 2382.43 341.788C2391.2 341.568 2399.92 343.18 2408.03 346.519C2415.27 349.348 2421.69 353.935 2426.71 359.864C2431.36 365.732 2434.82 372.448 2436.9 379.639C2439.21 387.851 2440.35 396.345 2440.3 404.874V415.792H2344.58C2344.51 421.921 2345.41 428.022 2347.25 433.869C2348.82 439.089 2351.33 443.98 2354.65 448.306C2357.93 452.367 2362.07 455.641 2366.78 457.89C2372.03 460.301 2377.75 461.503 2383.52 461.408C2391.88 462.067 2400.22 459.887 2407.18 455.221C2412.28 450.973 2415.86 445.182 2417.37 438.722L2437.75 438.479ZM2418.1 399.414C2418.12 393.776 2417.47 388.155 2416.16 382.672C2414.93 378.01 2412.78 373.639 2409.85 369.813C2406.96 366.195 2403.2 363.359 2398.93 361.563C2393.79 359.4 2388.25 358.365 2382.67 358.53C2377.74 358.252 2372.8 359.04 2368.19 360.84C2363.59 362.64 2359.42 365.411 2355.98 368.963C2348.94 377.582 2344.93 388.286 2344.58 399.414H2418.1Z" fill="#30D266"/>
<path d="M2465.66 346.034H2487.37V365.687C2492.81 358.058 2500.01 351.857 2508.36 347.611C2515.92 343.935 2524.22 342.027 2532.62 342.03C2538.6 341.561 2544.61 342.403 2550.22 344.499C2555.84 346.594 2560.93 349.893 2565.14 354.162C2572.83 364.164 2576.58 376.638 2575.69 389.223V474.874H2553.98V393.348C2554.87 384.442 2552.6 375.504 2547.55 368.114C2544.97 365.509 2541.85 363.498 2538.41 362.22C2534.98 360.942 2531.31 360.428 2527.65 360.713C2522.77 360.723 2517.92 361.585 2513.33 363.261C2508.52 364.965 2504.13 367.697 2500.47 371.268C2496.65 374.503 2493.44 378.409 2491.01 382.793C2488.69 387.716 2487.61 393.129 2487.86 398.565V474.874H2466.14L2465.66 346.034Z" fill="#30D266"/>
<path d="M2612.33 363.253H2592.43V346.026H2612.33V310.964H2634.04V346.026H2668.14V363.253H2634.04V438.471C2633.75 443.838 2635.2 449.156 2638.17 453.635C2639.7 455.58 2641.68 457.117 2643.95 458.112C2646.21 459.106 2648.69 459.527 2651.15 459.338C2654.36 459.375 2657.57 459.131 2660.74 458.61C2663.34 458.193 2665.89 457.543 2668.38 456.668L2672.14 473.289C2668.58 474.545 2664.93 475.519 2661.22 476.201C2656.65 476.985 2652.02 477.351 2647.39 477.293C2641.35 477.534 2635.34 476.414 2629.8 474.017C2625.41 472.018 2621.66 468.822 2619 464.797C2616.22 460.506 2614.4 455.664 2613.66 450.603C2612.76 444.701 2612.31 438.739 2612.33 432.769V363.253Z" fill="#30D266"/>
<path d="M2702.47 437.268C2702.76 441.047 2703.93 444.706 2705.89 447.95C2707.85 451.195 2710.54 453.935 2713.75 455.952C2721.23 459.848 2729.59 461.73 2738.02 461.411C2746.2 462.196 2754.41 460.186 2761.31 455.709C2763.55 453.964 2765.35 451.713 2766.55 449.14C2767.75 446.568 2768.32 443.746 2768.22 440.908C2768.2 438.539 2767.91 436.179 2767.37 433.871C2766.81 431.617 2765.63 429.561 2763.98 427.927C2761.99 425.954 2759.65 424.388 2757.06 423.317C2753.17 421.735 2749.09 420.635 2744.93 420.041L2730.01 417.493C2723.49 416.622 2717.07 415.118 2710.84 413.005C2705.82 411.479 2701.1 409.099 2696.89 405.968C2693.12 403.242 2690.14 399.555 2688.27 395.292C2686.2 390.429 2685.2 385.171 2685.36 379.884C2685.28 374.342 2686.61 368.87 2689.25 363.992C2691.82 359.177 2695.47 355.024 2699.92 351.86C2704.85 348.399 2710.35 345.851 2716.18 344.338C2722.78 342.545 2729.6 341.648 2736.44 341.669C2744.3 341.501 2752.14 342.44 2759.73 344.459C2765.26 345.971 2770.45 348.524 2775.02 351.981C2778.89 354.961 2782.04 358.776 2784.24 363.142C2786.45 367.492 2788.12 372.096 2789.21 376.851L2769.56 380.127C2768.51 376.938 2767.17 373.852 2765.55 370.907C2764.08 368.28 2762.05 366.003 2759.61 364.234C2756.81 362.424 2753.74 361.072 2750.51 360.231C2746.13 359.279 2741.65 358.831 2737.17 358.896C2732.15 358.834 2727.14 359.364 2722.24 360.473C2718.8 361.313 2715.55 362.795 2712.66 364.841C2710.44 366.409 2708.68 368.546 2707.56 371.028C2706.55 373.238 2706.02 375.635 2705.99 378.065C2705.95 380.495 2706.31 382.915 2707.08 385.223C2707.74 387.388 2709.05 389.296 2710.84 390.682C2713.05 392.48 2715.55 393.876 2718.24 394.807C2722.2 396.092 2726.26 397.066 2730.37 397.718L2749.06 400.751C2760.8 402.102 2771.91 406.774 2781.08 414.218C2784.46 417.745 2787.06 421.945 2788.72 426.543C2790.37 431.141 2791.03 436.036 2790.67 440.908C2790.86 446.046 2789.86 451.159 2787.76 455.851C2785.66 460.543 2782.5 464.687 2778.54 467.962C2773.67 471.628 2768.15 474.345 2762.28 475.969C2754.92 477.929 2747.33 478.868 2739.71 478.759C2732.38 478.815 2725.06 478.083 2717.88 476.576C2711.56 475.244 2705.53 472.822 2700.04 469.418C2695.12 466.359 2690.97 462.208 2687.91 457.286C2684.6 451.322 2682.7 444.685 2682.33 437.875L2702.47 437.268Z" fill="#30D266"/>
</g>
<defs>
<clipPath id="clip0_1250_294">
<rect width="2790.34" height="922.024" fill="white" transform="translate(0.331299 -155.981)"/>
</clipPath>
</defs>
</svg>
